<svg width="405" height="231" viewBox="0 0 405 231" fill="none" xmlns="http://www.w3.org/2000/svg">
<rect width="405" height="231" fill="#7952B3"/>
<path fill-rule="evenodd" clip-rule="evenodd" d="M148.11 41C137.366 41 129.416 50.4039 129.772 60.6021C130.114 70.3999 129.67 83.0894 126.475 93.4377C123.269 103.815 117.851 110.391 109 111.235V120.765C117.851 121.611 123.269 128.183 126.475 138.562C129.67 148.911 130.113 161.6 129.772 171.398C129.416 181.595 137.366 191 148.112 191H258.202C268.946 191 276.895 181.596 276.539 171.398C276.197 161.6 276.641 148.911 279.836 138.562C283.041 128.183 288.446 121.608 297.298 120.765V111.235C288.447 110.389 283.042 103.817 279.836 93.4377C276.641 83.0909 276.197 70.3999 276.539 60.6021C276.895 50.4053 268.946 41 258.202 41H148.109H148.11ZM236.66 133.335C236.66 147.377 226.185 155.894 208.803 155.894H179.213C178.366 155.894 177.555 155.558 176.956 154.959C176.357 154.361 176.021 153.549 176.021 152.702V79.2981C176.021 78.4516 176.357 77.6398 176.956 77.0413C177.555 76.4428 178.366 76.1066 179.213 76.1066H208.634C223.128 76.1066 232.641 83.9577 232.641 96.0117C232.641 104.472 226.242 112.046 218.089 113.373V113.815C229.187 115.032 236.66 122.718 236.66 133.335V133.335ZM205.576 86.2235H188.705V110.055H202.915C213.9 110.055 219.957 105.631 219.957 97.7248C219.956 90.315 214.748 86.2235 205.576 86.2235ZM188.705 119.511V145.774H206.197C217.635 145.774 223.693 141.184 223.693 132.559C223.693 123.934 217.465 119.509 205.462 119.509H188.705V119.511Z" fill="white"/>
</svg>
