<svg width="405" height="231" viewBox="0 0 405 231" fill="none" xmlns="http://www.w3.org/2000/svg">
<rect width="405" height="231" fill="white"/>
<path d="M151.694 153.33C149.254 156.581 146.527 159.607 143.547 162.371C142.98 161.578 142.451 160.822 141.884 160.054C140.688 158.367 139.504 156.705 138.308 155.017C136.024 151.581 133.344 148.424 130.325 145.611C128.661 144.099 126.812 142.804 124.822 141.758C119.927 139.332 114.467 138.27 109.019 138.686C108.91 138.698 108.801 138.698 108.692 138.686C113.582 136.673 118.927 136.029 124.155 136.822C126.294 137.174 128.378 137.809 130.35 138.711C133.973 140.411 137.387 142.523 140.524 145.007C142.111 146.19 143.71 147.349 145.259 148.545L151.694 153.318" fill="#FCC467"/>
<path d="M143.546 162.371C133.44 171.711 120.678 177.674 107.03 179.433C104.233 179.806 101.415 179.996 98.5929 180C83.2575 179.96 68.4098 174.607 56.577 164.852C44.7442 155.097 36.6577 141.543 33.6937 126.496C33.5515 125.753 33.5746 124.987 33.7615 124.253C33.9483 123.519 34.2944 122.835 34.775 122.25C35.2557 121.665 35.8592 121.192 36.5428 120.867C37.2263 120.541 37.9732 120.369 38.7305 120.364H68.5106C69.551 120.375 70.5645 120.695 71.4215 121.285C72.2784 121.875 72.9398 122.708 73.3208 123.676C74.6354 126.989 76.592 130.01 79.0782 132.565C81.5643 135.12 84.531 137.158 87.8076 138.562C91.0842 139.967 94.6061 140.709 98.1707 140.748C101.735 140.786 105.272 140.12 108.578 138.786C108.687 138.799 108.797 138.799 108.906 138.786C114.354 138.371 119.813 139.432 124.709 141.859C126.699 142.905 128.548 144.199 130.212 145.712C133.231 148.525 135.91 151.681 138.195 155.118C139.391 156.768 140.575 158.43 141.771 160.155C142.338 160.923 142.866 161.679 143.433 162.472" fill="#F39006"/>
<path d="M151.139 76.6699C148.699 73.4157 145.968 70.3896 142.98 67.6288C142.426 68.4221 141.897 69.1777 141.33 69.9458C140.138 71.6247 138.946 73.3037 137.754 74.9826C135.466 78.4163 132.787 81.5728 129.771 84.3888C128.107 85.9013 126.258 87.1961 124.268 88.242C119.373 90.6684 113.913 91.7298 108.465 91.3144C108.356 91.3018 108.246 91.3018 108.138 91.3144C113.027 93.3285 118.373 93.9727 123.601 93.1781C125.74 92.824 127.823 92.1889 129.796 91.2892C133.419 89.5895 136.833 87.4768 139.97 84.9932C141.557 83.8096 143.144 82.6511 144.705 81.4549L151.139 76.6825" fill="#FCC467"/>
<path d="M142.98 67.6288C132.897 58.2986 120.162 52.3358 106.539 50.5666C103.738 50.1937 100.915 50.0044 98.0893 50C82.7372 50.019 67.867 55.3623 56.0139 65.1189C44.1609 74.8755 36.0589 88.4413 33.0893 103.503C32.9494 104.247 32.9741 105.012 33.1619 105.745C33.3497 106.478 33.6959 107.161 34.1761 107.746C34.6563 108.33 35.2588 108.802 35.9413 109.129C36.6238 109.456 37.3695 109.629 38.1261 109.636H67.9188C68.9582 109.628 69.9713 109.308 70.8267 108.718C71.6822 108.127 72.3405 107.293 72.7164 106.324C74.032 103.004 75.9918 99.9772 78.4828 97.4181C80.9737 94.859 83.9466 92.8183 87.23 91.4136C90.5135 90.0089 94.0424 89.2681 97.6135 89.2338C101.185 89.1995 104.727 89.8724 108.037 91.2137V91.2137C108.146 91.2011 108.256 91.2011 108.364 91.2137C113.812 91.6291 119.272 90.5676 124.167 88.1412C126.158 87.0953 128.007 85.8005 129.67 84.2881C132.686 81.4721 135.365 78.3156 137.653 74.8818C138.837 73.2029 140.029 71.524 141.23 69.845C141.796 69.0769 142.325 68.3214 142.879 67.5281" fill="#F39006"/>
<path d="M209.541 108.704C207.887 108.253 206.315 107.543 204.882 106.601C203.447 105.685 202.171 104.541 201.105 103.214C199.994 101.795 199.142 100.193 198.586 98.4792C197.977 96.5531 197.676 94.5431 197.692 92.5232C197.684 90.694 197.925 88.8723 198.41 87.1086C199.324 83.7785 201.29 80.8327 204.013 78.7097C205.447 77.6219 207.063 76.7989 208.786 76.2795C210.715 75.6852 212.724 75.3921 214.742 75.4106C216.313 75.412 217.876 75.628 219.388 76.0528C221.019 76.5374 222.571 77.2541 223.997 78.1809C225.545 79.1604 226.922 80.3853 228.077 81.8074L222.373 86.6805C221.427 85.5763 220.288 84.6545 219.01 83.9606C217.707 83.2281 216.237 82.8463 214.742 82.8525C213.951 82.8505 213.164 82.9521 212.4 83.1547C211.274 83.436 210.219 83.9499 209.304 84.6634C208.389 85.3769 207.633 86.2742 207.086 87.2975C206.681 88.052 206.376 88.8563 206.179 89.69C205.963 90.6187 205.858 91.5697 205.864 92.5232C205.837 94.1738 206.209 95.8065 206.947 97.2829C207.642 98.6912 208.726 99.871 210.07 100.683C211.478 101.534 213.097 101.971 214.742 101.942C216.21 101.935 217.655 101.581 218.96 100.909C220.279 100.246 221.442 99.3104 222.373 98.1644L228.077 103.05C226.53 104.976 224.584 106.545 222.373 107.646C220.003 108.823 217.387 109.418 214.742 109.384C212.956 109.393 211.177 109.16 209.453 108.691" fill="#5B1213"/>
<path d="M253.223 86.1265V108.931H245.92V106.412H245.806C245.035 107.375 244.052 108.148 242.934 108.67C241.816 109.192 240.593 109.449 239.359 109.422C233.886 109.422 231.145 106.181 231.137 99.7007V86.1265H238.427V97.8497C238.314 99.1933 238.594 100.541 239.233 101.728C239.547 102.127 239.956 102.441 240.422 102.641C240.888 102.841 241.397 102.921 241.903 102.874C242.458 102.885 243.008 102.764 243.507 102.521C244.006 102.278 244.44 101.92 244.774 101.476C245.616 100.299 246.021 98.8652 245.92 97.4216V86.0887L253.223 86.1265Z" fill="#5B1213"/>
<path d="M265.349 74.6048H258.083V108.931H265.349V74.6048Z" fill="#5B1213"/>
<path d="M272.804 107.445C271.487 105.862 270.833 103.832 270.978 101.778V92.0825H268.459V86.1391H270.978V78.8483L278.269 78.0802V86.1391H283.796V92.0825H278.269V100.406C278.233 101.065 278.363 101.723 278.646 102.32C278.781 102.553 278.979 102.742 279.218 102.864C279.457 102.987 279.726 103.039 279.994 103.012C280.78 103.002 281.553 102.804 282.248 102.433L284.048 107.81C283.17 108.308 282.236 108.701 281.265 108.981C280.093 109.276 278.886 109.412 277.677 109.384C276.773 109.43 275.87 109.281 275.029 108.946C274.188 108.611 273.429 108.099 272.804 107.445" fill="#5B1213"/>
<path d="M309.157 86.1265V108.931H301.904V106.412H301.79C301.02 107.376 300.037 108.149 298.919 108.671C297.801 109.193 296.577 109.45 295.343 109.422C289.862 109.422 287.125 106.181 287.133 99.7007V86.1265H294.348V97.8496C294.238 99.1945 294.523 100.542 295.167 101.728C295.479 102.129 295.888 102.444 296.354 102.644C296.821 102.845 297.331 102.924 297.836 102.874C298.391 102.883 298.94 102.762 299.439 102.519C299.938 102.276 300.373 101.919 300.707 101.476C301.573 100.289 301.996 98.8371 301.904 97.3711V86.0383L309.157 86.1265Z" fill="#5B1213"/>
<path d="M328.007 85.711V93.5936C327.566 93.5936 327 93.5936 326.294 93.5936C325.294 93.5645 324.304 93.799 323.423 94.2735C322.657 94.684 322.037 95.3219 321.648 96.0994C321.248 96.9313 321.049 97.8459 321.069 98.7689V109.006H313.778V86.1265H321.069V89.1738H321.157C321.701 88.4444 322.351 87.7994 323.084 87.2598C323.765 86.7548 324.521 86.3597 325.325 86.0887C326.108 85.8266 326.929 85.6948 327.755 85.6984H328.007" fill="#5B1213"/>
<path d="M352.07 99.4866H336.544C336.763 100.669 337.436 101.718 338.421 102.408C339.461 103.109 340.693 103.47 341.946 103.441C343.016 103.427 344.069 103.172 345.026 102.694C345.983 102.217 346.82 101.529 347.474 100.683L351.353 105.027C350.237 106.4 348.807 107.484 347.185 108.188C345.287 109.013 343.235 109.421 341.166 109.384C339.559 109.395 337.965 109.1 336.469 108.515C335.059 107.979 333.774 107.16 332.691 106.11C331.596 105.041 330.738 103.754 330.173 102.332C329.555 100.805 329.242 99.1703 329.254 97.5223C329.244 95.8942 329.543 94.2792 330.135 92.7625C330.673 91.3538 331.492 90.0688 332.54 88.9849C333.588 87.9303 334.839 87.0993 336.217 86.542C337.688 85.9445 339.263 85.6449 340.851 85.6606C342.902 85.6274 344.926 86.1356 346.719 87.1339C348.431 88.1045 349.833 89.5411 350.761 91.2766C351.783 93.1435 352.303 95.2432 352.272 97.3712C352.257 98.0965 352.194 98.8201 352.083 99.537L352.07 99.4866ZM338.106 92.5106C337.291 93.1912 336.749 94.144 336.582 95.1927H345.12C344.979 94.5101 344.71 93.8605 344.326 93.2788C343.974 92.7433 343.488 92.3092 342.916 92.0196C342.313 91.722 341.649 91.571 340.977 91.5788C339.939 91.5508 338.924 91.8846 338.106 92.5232" fill="#5B1213"/>
<path d="M209.755 153.783C208.071 153.327 206.469 152.609 205.008 151.655C203.574 150.708 202.299 149.539 201.231 148.193C200.108 146.754 199.254 145.125 198.712 143.382C198.083 141.422 197.772 139.372 197.793 137.313C197.782 135.45 198.028 133.594 198.523 131.798C199.451 128.406 201.452 125.406 204.227 123.248C205.686 122.127 207.331 121.274 209.088 120.729C211.051 120.131 213.093 119.834 215.145 119.848C216.746 119.851 218.339 120.075 219.879 120.515C223.332 121.546 226.4 123.58 228.694 126.358L222.901 131.37C221.937 130.246 220.776 129.308 219.476 128.599C218.149 127.857 216.653 127.471 215.132 127.479C214.329 127.477 213.529 127.578 212.752 127.781C211.998 127.972 211.274 128.264 210.599 128.65C209.906 129.044 209.275 129.536 208.723 130.11C208.164 130.691 207.686 131.343 207.3 132.05C206.892 132.817 206.583 133.634 206.381 134.48C206.164 135.426 206.058 136.393 206.066 137.363C206.043 139.043 206.419 140.704 207.161 142.211C207.877 143.642 208.981 144.842 210.347 145.674C211.778 146.535 213.425 146.972 215.094 146.933C216.592 146.929 218.068 146.57 219.401 145.888C220.742 145.215 221.923 144.262 222.864 143.093L228.681 148.13C227.102 150.085 225.117 151.675 222.864 152.789C220.452 153.991 217.789 154.6 215.094 154.564C213.278 154.574 211.469 154.337 209.718 153.859" fill="#5B1213"/>
<path d="M255.225 130.853V154.035H248.174V151.517H248.085C247.329 152.493 246.348 153.271 245.225 153.784C244.102 154.297 242.871 154.53 241.638 154.463C240.124 154.478 238.623 154.178 237.231 153.582C235.913 153.028 234.729 152.199 233.756 151.152C232.763 150.055 232.001 148.771 231.514 147.374C230.426 144.199 230.426 140.752 231.514 137.577C232.007 136.189 232.759 134.907 233.73 133.8C234.665 132.732 235.815 131.874 237.105 131.281C238.417 130.681 239.844 130.376 241.286 130.387C242.503 130.355 243.712 130.599 244.822 131.101C245.932 131.602 246.915 132.349 247.695 133.284H247.758V130.828L255.225 130.853ZM246.675 146.48C247.639 145.399 248.145 143.986 248.085 142.539C248.101 141.553 247.881 140.577 247.443 139.693C247.052 138.885 246.441 138.205 245.68 137.729C244.929 137.249 244.053 137.004 243.162 137.023C242.493 137.005 241.828 137.132 241.213 137.395C240.598 137.658 240.047 138.051 239.598 138.547C238.688 139.669 238.192 141.069 238.192 142.514C238.192 143.958 238.688 145.358 239.598 146.48C240.054 146.961 240.602 147.344 241.211 147.606C241.819 147.867 242.474 148.002 243.137 148.002C243.799 148.002 244.454 147.867 245.063 147.606C245.671 147.344 246.22 146.961 246.675 146.48" fill="#5B1213"/>
<path d="M278.243 131.37C279.533 131.962 280.683 132.82 281.618 133.888C282.589 134.996 283.341 136.278 283.834 137.666C284.388 139.235 284.665 140.888 284.653 142.551C284.699 144.733 284.215 146.894 283.242 148.847C282.381 150.607 281.03 152.081 279.351 153.091C277.647 154.106 275.693 154.625 273.71 154.589C272.525 154.641 271.343 154.425 270.253 153.956C269.162 153.487 268.192 152.778 267.414 151.882H267.301V163.542H259.884V130.929H267.326V133.447H267.414C268.22 132.49 269.232 131.727 270.375 131.217C271.518 130.707 272.761 130.462 274.012 130.501C275.459 130.488 276.89 130.793 278.206 131.395L278.243 131.37ZM275.687 146.505C276.643 145.421 277.14 144.008 277.072 142.564C277.08 141.792 276.952 141.025 276.695 140.297C276.464 139.651 276.108 139.057 275.649 138.547C275.206 138.069 274.665 137.691 274.063 137.439C273.442 137.176 272.773 137.043 272.098 137.049C271.412 137.028 270.73 137.156 270.097 137.423C269.465 137.69 268.898 138.091 268.434 138.597C267.457 139.682 266.942 141.105 266.999 142.564C266.964 143.286 267.075 144.008 267.324 144.687C267.572 145.366 267.954 145.989 268.447 146.518C268.917 147.014 269.486 147.405 270.117 147.665C270.749 147.925 271.428 148.049 272.111 148.029C272.782 148.051 273.45 147.926 274.068 147.663C274.685 147.399 275.238 147.004 275.687 146.505" fill="#5B1213"/>
<path d="M290.974 152.549C289.626 150.938 288.958 148.865 289.11 146.77V136.898H286.491V130.853H289.11V123.437L296.527 122.643V130.853H302.156V136.898H296.527V145.385C296.489 146.054 296.623 146.721 296.917 147.324C297.054 147.561 297.256 147.753 297.5 147.878C297.743 148.004 298.017 148.056 298.29 148.029C299.088 148.017 299.873 147.819 300.582 147.45L302.42 152.915C301.521 153.421 300.566 153.823 299.574 154.111C298.38 154.407 297.152 154.542 295.923 154.514C295.006 154.556 294.09 154.403 293.237 154.064C292.384 153.725 291.612 153.209 290.974 152.549" fill="#5B1213"/>
<path d="M327.982 130.853V154.035H320.54V151.517H320.427C319.643 152.499 318.644 153.286 317.505 153.817C316.367 154.348 315.122 154.608 313.866 154.577C308.292 154.577 305.505 151.278 305.505 144.679V130.853H312.922V142.791C312.812 144.16 313.096 145.532 313.74 146.745C314.063 147.15 314.482 147.468 314.959 147.671C315.437 147.873 315.957 147.953 316.473 147.903C317.035 147.912 317.592 147.788 318.098 147.541C318.604 147.294 319.043 146.93 319.381 146.48C320.239 145.281 320.649 143.82 320.54 142.35V130.853H327.982Z" fill="#5B1213"/>
<path d="M347.235 130.438V138.434C346.782 138.434 346.202 138.434 345.497 138.434C344.477 138.403 343.466 138.637 342.563 139.114C341.786 139.545 341.155 140.199 340.75 140.99C340.344 141.834 340.141 142.761 340.158 143.697V154.035H332.742V130.853H340.158V133.964H340.259C340.812 133.222 341.469 132.565 342.211 132.012C342.909 131.498 343.682 131.095 344.502 130.816C345.314 130.544 346.165 130.408 347.021 130.413C347.104 130.397 347.19 130.397 347.273 130.413" fill="#5B1213"/>
<path d="M371.676 144.453H355.861C356.083 145.653 356.771 146.717 357.774 147.412C358.832 148.128 360.086 148.498 361.363 148.47C362.452 148.452 363.522 148.191 364.497 147.705C365.471 147.219 366.323 146.521 366.992 145.662L370.933 150.094C369.792 151.481 368.338 152.578 366.69 153.292C364.766 154.153 362.677 154.583 360.57 154.552C358.933 154.566 357.309 154.267 355.785 153.67C354.34 153.131 353.025 152.291 351.929 151.205C350.833 150.12 349.98 148.814 349.426 147.374C348.796 145.819 348.48 144.154 348.494 142.476C348.483 140.818 348.786 139.173 349.388 137.628C349.939 136.217 350.77 134.932 351.831 133.85C352.899 132.754 354.186 131.896 355.609 131.332C357.107 130.72 358.712 130.412 360.331 130.425C362.421 130.393 364.484 130.91 366.312 131.924C368.059 132.914 369.487 134.382 370.429 136.155C371.42 138.036 371.922 140.136 371.89 142.262C371.881 142.999 371.822 143.736 371.714 144.465L371.676 144.453ZM357.485 137.313C356.65 138.005 356.095 138.976 355.923 140.046H364.612C364.475 139.348 364.201 138.685 363.806 138.094C363.449 137.553 362.953 137.119 362.371 136.835C361.759 136.538 361.086 136.387 360.406 136.394C359.351 136.366 358.319 136.704 357.485 137.351" fill="#5B1213"/>
</svg>
