<svg width="405" height="231" viewBox="0 0 405 231" fill="none" xmlns="http://www.w3.org/2000/svg">
<rect width="405" height="231" fill="#FF2D20"/>
<path d="M275.74 73.7275C275.794 73.9262 275.821 74.1312 275.822 74.337V106.338C275.822 106.749 275.714 107.152 275.508 107.508C275.302 107.863 275.006 108.158 274.649 108.362L247.79 123.826V154.477C247.79 155.311 247.347 156.081 246.624 156.501L190.557 188.777C190.429 188.85 190.289 188.896 190.149 188.946C190.097 188.963 190.047 188.995 189.992 189.01C189.6 189.113 189.188 189.113 188.796 189.01C188.732 188.992 188.673 188.957 188.612 188.934C188.484 188.887 188.35 188.847 188.227 188.777L132.172 156.501C131.816 156.297 131.521 156.002 131.315 155.647C131.109 155.291 131 154.888 131 154.477V58.4735C131 58.2635 131.029 58.0594 131.082 57.861C131.099 57.794 131.14 57.7327 131.163 57.6656C131.207 57.5431 131.248 57.4177 131.312 57.304C131.356 57.2281 131.42 57.1669 131.472 57.0969C131.54 57.0035 131.601 56.9073 131.68 56.8256C131.747 56.7585 131.834 56.709 131.91 56.6506C131.995 56.5806 132.07 56.5048 132.167 56.4494H132.17L160.198 40.3117C160.553 40.1075 160.955 40 161.365 40C161.774 40 162.177 40.1075 162.532 40.3117L190.56 56.4494H190.566C190.66 56.5077 190.738 56.5806 190.823 56.6477C190.899 56.706 190.983 56.7585 191.05 56.8227C191.132 56.9073 191.19 57.0035 191.26 57.0969C191.31 57.1669 191.377 57.2281 191.418 57.304C191.485 57.4206 191.523 57.5431 191.569 57.6656C191.593 57.7327 191.634 57.794 191.651 57.864C191.705 58.0627 191.732 58.2676 191.733 58.4735V118.436L215.089 104.988V74.3341C215.089 74.13 215.118 73.9229 215.171 73.7275C215.191 73.6575 215.229 73.5962 215.252 73.5291C215.299 73.4066 215.34 73.2812 215.404 73.1675C215.448 73.0916 215.512 73.0304 215.562 72.9604C215.632 72.8671 215.69 72.7708 215.772 72.6892C215.839 72.6221 215.923 72.5725 215.999 72.5142C216.087 72.4442 216.162 72.3683 216.256 72.3129H216.259L244.29 56.1752C244.645 55.9707 245.047 55.8631 245.457 55.8631C245.867 55.8631 246.269 55.9707 246.624 56.1752L274.652 72.3129C274.752 72.3712 274.827 72.4442 274.915 72.5112C274.988 72.5696 275.072 72.6221 275.139 72.6862C275.221 72.7708 275.279 72.8671 275.349 72.9604C275.402 73.0304 275.466 73.0916 275.507 73.1675C275.574 73.2812 275.612 73.4066 275.659 73.5291C275.685 73.5962 275.723 73.6575 275.74 73.7275ZM271.15 104.988V78.3766L261.341 84.0232L247.79 91.8251V118.436L271.152 104.988H271.15ZM243.121 153.127V126.498L229.792 134.11L191.73 155.833V182.713L243.121 153.127ZM135.672 62.513V153.127L187.057 182.71V155.836L160.213 140.644L160.204 140.638L160.192 140.632C160.102 140.579 160.026 140.504 159.942 140.439C159.869 140.381 159.784 140.334 159.72 140.27L159.714 140.262C159.638 140.189 159.586 140.098 159.522 140.017C159.463 139.938 159.393 139.871 159.347 139.789L159.344 139.78C159.291 139.693 159.259 139.588 159.221 139.489C159.183 139.401 159.134 139.319 159.11 139.226V139.223C159.081 139.112 159.075 138.996 159.064 138.882C159.052 138.794 159.029 138.707 159.029 138.619V75.9616L145.481 68.1567L135.672 62.516V62.513ZM161.368 45.0308L138.014 58.4735L161.362 71.9162L184.713 58.4706L161.362 45.0308H161.368ZM173.513 128.925L187.06 121.126V62.513L177.252 68.1596L163.701 75.9616V134.574L173.513 128.925ZM245.457 60.8943L222.107 74.337L245.457 87.7798L268.805 74.3341L245.457 60.8943ZM243.121 91.8251L229.57 84.0232L219.762 78.3766V104.988L233.309 112.787L243.121 118.436V91.8251ZM189.391 151.794L223.641 132.241L240.761 122.47L217.428 109.036L190.563 124.503L166.078 138.599L189.391 151.794Z" fill="white"/>
</svg>
