<svg width="405" height="231" viewBox="0 0 405 231" fill="none" xmlns="http://www.w3.org/2000/svg">
<rect width="405" height="231" fill="#83CD29"/>
<path d="M203.348 16C202 16 200.69 16.2784 199.529 16.9349L162.82 38.1344C160.444 39.5037 159 42.0884 159 44.8388V87.1611C159 89.9093 160.444 92.4907 162.82 93.8632L172.407 99.3977C177.065 101.693 178.782 101.657 180.902 101.657C187.798 101.657 191.735 97.4727 191.735 90.2007V48.4233C191.735 47.833 191.224 47.4105 190.644 47.4105H186.046C185.457 47.4105 184.955 47.833 184.955 48.4233V90.2007C184.955 93.4234 181.597 96.6657 176.148 93.9412L166.171 88.0959C165.818 87.9042 165.547 87.5651 165.547 87.1611V44.8377C165.547 44.4369 165.815 44.0285 166.171 43.8249L202.803 22.7044C202.969 22.6076 203.157 22.5567 203.349 22.5567C203.54 22.5567 203.728 22.6076 203.894 22.7044L240.527 43.8259C240.876 44.0361 241.151 44.425 241.151 44.8399V87.1621C241.151 87.5662 240.947 87.98 240.605 88.175L203.894 109.297C203.58 109.484 203.146 109.484 202.803 109.297L193.372 103.685C193.229 103.607 193.068 103.567 192.905 103.567C192.741 103.567 192.581 103.607 192.437 103.685C189.834 105.161 189.345 105.332 186.903 106.179C186.302 106.389 185.388 106.715 187.215 107.739L199.529 114.986C200.691 115.656 202.009 116.006 203.349 116C204.689 116.008 206.008 115.659 207.168 114.987L243.878 93.8643C246.254 92.4832 247.697 89.9104 247.697 87.1621V44.8388C247.697 42.0895 246.254 39.5091 243.878 38.1366L207.168 16.937C206.017 16.2795 204.698 16.0011 203.349 16.0011L203.348 16Z" fill="white"/>
<path d="M213.169 46.2416C202.715 46.2416 196.49 50.6906 196.49 58.0893C196.49 66.1142 202.669 68.3197 212.702 69.312C224.704 70.4874 225.639 72.2499 225.639 74.6125C225.639 78.7105 222.372 80.4578 214.651 80.4578C204.948 80.4578 202.816 78.0356 202.102 73.2096C202.018 72.6918 201.618 72.2737 201.088 72.2737H196.334C195.749 72.2737 195.243 72.7785 195.243 73.3656C195.243 79.5435 198.603 86.8491 214.651 86.8491C226.266 86.8491 232.966 82.2896 232.966 74.3005C232.966 66.3818 227.554 64.2553 216.286 62.7658C204.901 61.259 203.816 60.5213 203.816 57.8554C203.816 55.6541 204.737 52.7098 213.169 52.7098C220.702 52.7098 223.486 54.3347 224.626 59.4142C224.726 59.8908 225.146 60.271 225.639 60.271H230.395C230.687 60.271 230.971 60.0912 231.174 59.8811C231.373 59.6568 231.514 59.4044 231.486 59.1022C230.749 50.3559 224.917 46.2416 213.169 46.2416V46.2416Z" fill="white"/>
<path d="M66.7976 186.382V155.641H105.18V153.843H66.7976V125.798H107.607V124H65V188.18H107.966V186.382H66.7982H66.7976ZM142.573 141.977L126.663 162.921L111.112 141.978H108.775L125.584 164.27L107.157 188.179H109.314L126.662 165.617L144.101 188.179H146.348L127.831 164.269L144.73 141.977H142.573L142.573 141.977ZM151.742 204V175.236H151.921C153 179.431 155.128 182.802 158.304 185.349C161.48 187.895 165.524 189.169 170.438 189.169C173.614 189.169 176.431 188.525 178.888 187.237C181.345 185.948 183.397 184.195 185.045 181.978C186.693 179.761 187.951 177.184 188.82 174.248C189.689 171.312 190.124 168.225 190.124 164.99C190.124 161.514 189.674 158.307 188.775 155.371C187.876 152.435 186.573 149.888 184.865 147.731C183.157 145.574 181.09 143.895 178.663 142.698C176.236 141.499 173.494 140.899 170.438 140.899C168.101 140.899 165.929 141.244 163.921 141.933C161.914 142.623 160.131 143.596 158.573 144.854C157.006 146.123 155.642 147.623 154.528 149.304C153.39 151.012 152.521 152.884 151.921 154.922H151.742V141.977H149.944V204H151.742ZM170.438 187.46C164.806 187.46 160.281 185.528 156.865 181.663C153.45 177.798 151.742 172.24 151.742 164.989C151.742 161.992 152.161 159.146 153 156.449C153.839 153.753 155.053 151.386 156.64 149.348C158.229 147.311 160.191 145.693 162.528 144.495C164.865 143.296 167.502 142.696 170.438 142.696C173.434 142.696 176.056 143.296 178.303 144.495C180.55 145.693 182.408 147.326 183.876 149.393C185.344 151.461 186.453 153.828 187.203 156.494C187.951 159.161 188.326 161.992 188.326 164.989C188.326 167.686 187.982 170.367 187.292 173.034C186.603 175.7 185.539 178.097 184.101 180.225C182.663 182.352 180.821 184.09 178.573 185.438C176.326 186.787 173.614 187.46 170.438 187.46ZM200.011 188.18V162.022C200.011 159.506 200.371 157.048 201.09 154.652C201.809 152.255 202.918 150.142 204.416 148.315C205.914 146.487 207.816 145.049 210.124 144C212.431 142.951 215.172 142.517 218.348 142.696V140.899C215.592 140.839 213.18 141.138 211.113 141.798C209.045 142.457 207.262 143.356 205.764 144.495C204.266 145.633 203.068 146.966 202.169 148.494C201.271 150.02 200.604 151.671 200.191 153.393H200.011V141.977H198.214V188.18H200.011V188.18ZM220.595 165.438H259.247C259.367 162.262 259.053 159.206 258.303 156.27C257.555 153.333 256.356 150.726 254.708 148.45C253.06 146.172 250.933 144.345 248.326 142.966C245.719 141.588 242.618 140.899 239.023 140.899C236.446 140.899 233.929 141.438 231.472 142.517C229.015 143.596 226.857 145.168 225 147.236C223.142 149.303 221.644 151.835 220.506 154.832C219.368 157.828 218.798 161.243 218.798 165.079C218.798 168.494 219.187 171.685 219.966 174.652C220.745 177.618 221.944 180.195 223.562 182.382C225.18 184.569 227.263 186.262 229.809 187.46C232.356 188.659 235.427 189.228 239.023 189.169C244.296 189.169 248.731 187.685 252.326 184.719C255.922 181.753 258.049 177.573 258.708 172.18H256.91C256.131 177.274 254.138 181.094 250.933 183.64C247.726 186.187 243.697 187.46 238.843 187.46C235.547 187.46 232.76 186.891 230.483 185.753C228.206 184.615 226.348 183.056 224.91 181.079C223.472 179.101 222.408 176.779 221.719 174.112C221.03 171.446 220.655 168.554 220.595 165.438ZM257.449 163.64H220.596C220.775 160.404 221.375 157.498 222.393 154.922C223.412 152.344 224.745 150.142 226.394 148.315C228.041 146.487 229.959 145.094 232.146 144.135C234.333 143.176 236.686 142.696 239.202 142.696C242.199 142.696 244.835 143.251 247.113 144.36C249.389 145.468 251.292 146.982 252.82 148.899C254.348 150.816 255.502 153.049 256.281 155.595C257.06 158.142 257.449 160.824 257.449 163.64ZM296.551 155.641H298.348C298.348 150.487 296.85 146.742 293.854 144.404C290.857 142.067 286.783 140.899 281.629 140.899C278.753 140.899 276.326 141.259 274.348 141.978C272.371 142.696 270.753 143.625 269.494 144.764C268.236 145.902 267.337 147.161 266.798 148.539C266.258 149.918 265.989 151.236 265.989 152.494C265.989 155.011 266.438 157.019 267.337 158.517C268.236 160.015 269.644 161.184 271.562 162.022C272.88 162.621 274.378 163.161 276.056 163.641C277.734 164.12 279.682 164.629 281.899 165.168C283.876 165.648 285.824 166.128 287.742 166.607C289.659 167.086 291.352 167.73 292.82 168.539C294.289 169.348 295.487 170.382 296.416 171.641C297.344 172.899 297.809 174.547 297.809 176.584C297.809 178.562 297.345 180.24 296.416 181.618C295.495 182.989 294.283 184.14 292.866 184.989C291.427 185.858 289.824 186.487 288.056 186.876C286.288 187.266 284.566 187.46 282.888 187.46C277.435 187.46 273.255 186.247 270.348 183.82C267.442 181.393 265.989 177.573 265.989 172.359H264.191C264.191 178.172 265.764 182.427 268.91 185.124C272.056 187.82 276.716 189.169 282.888 189.169C284.865 189.169 286.858 188.944 288.866 188.494C290.873 188.045 292.671 187.311 294.259 186.292C295.833 185.287 297.155 183.934 298.123 182.337C299.112 180.719 299.607 178.742 299.607 176.404C299.607 174.187 299.172 172.39 298.304 171.011C297.435 169.633 296.296 168.494 294.888 167.596C293.479 166.697 291.892 165.993 290.124 165.483C288.346 164.971 286.563 164.476 284.775 164C282.575 163.422 280.373 162.853 278.168 162.292C276.281 161.813 274.528 161.243 272.91 160.584C271.352 159.925 270.109 158.981 269.18 157.753C268.251 156.524 267.787 154.772 267.787 152.494C267.787 152.075 267.907 151.326 268.146 150.247C268.386 149.168 268.955 148.075 269.854 146.966C270.753 145.858 272.131 144.869 273.989 144C275.846 143.131 278.393 142.696 281.629 142.696C283.847 142.696 285.869 142.937 287.697 143.416C289.524 143.895 291.098 144.659 292.416 145.708C293.734 146.757 294.753 148.09 295.472 149.708C296.191 151.326 296.551 153.304 296.551 155.641ZM338.169 155.641H339.966C339.966 150.487 338.469 146.742 335.472 144.404C332.476 142.067 328.401 140.899 323.247 140.899C320.371 140.899 317.944 141.259 315.966 141.978C313.989 142.696 312.371 143.625 311.113 144.764C309.854 145.902 308.955 147.161 308.416 148.539C307.876 149.918 307.607 151.236 307.607 152.494C307.607 155.011 308.056 157.019 308.956 158.517C309.854 160.015 311.263 161.184 313.18 162.022C314.498 162.621 315.996 163.161 317.674 163.641C319.352 164.12 321.299 164.629 323.517 165.168C325.495 165.648 327.442 166.128 329.36 166.607C331.277 167.086 332.97 167.73 334.438 168.539C335.906 169.348 337.105 170.382 338.034 171.641C338.963 172.899 339.427 174.547 339.427 176.584C339.427 178.562 338.963 180.24 338.034 181.618C337.113 182.989 335.901 184.14 334.484 184.989C333.045 185.858 331.442 186.487 329.674 186.876C327.907 187.266 326.184 187.46 324.506 187.46C319.052 187.46 314.873 186.247 311.967 183.82C309.06 181.393 307.607 177.573 307.607 172.359H305.809C305.809 178.172 307.382 182.427 310.528 185.124C313.674 187.82 318.333 189.169 324.506 189.169C326.483 189.169 328.476 188.944 330.483 188.494C332.49 188.045 334.288 187.311 335.877 186.292C337.451 185.287 338.773 183.934 339.742 182.337C340.731 180.719 341.225 178.742 341.225 176.404C341.225 174.187 340.791 172.39 339.921 171.011C339.053 169.633 337.914 168.494 336.506 167.596C335.098 166.697 333.509 165.993 331.742 165.483C329.964 164.971 328.181 164.476 326.393 164C324.193 163.422 321.991 162.853 319.787 162.292C317.899 161.813 316.146 161.243 314.528 160.584C312.97 159.925 311.726 158.981 310.798 157.753C309.869 156.524 309.404 154.772 309.404 152.494C309.404 152.075 309.524 151.326 309.764 150.247C310.004 149.168 310.574 148.075 311.472 146.966C312.371 145.858 313.749 144.869 315.607 144C317.465 143.131 320.011 142.696 323.248 142.696C325.465 142.696 327.487 142.937 329.315 143.416C331.143 143.895 332.715 144.659 334.034 145.708C335.352 146.757 336.371 148.09 337.09 149.708C337.809 151.326 338.169 153.304 338.169 155.641H338.169Z" fill="white"/>
</svg>
