<svg width="405" height="231" viewBox="0 0 405 231" fill="none" xmlns="http://www.w3.org/2000/svg">
<rect width="405" height="231" fill="#61DAFB"/>
<path d="M286.437 116.017C286.437 104.859 272.463 94.2845 251.04 87.7269C255.984 65.8913 253.786 48.5189 244.104 42.957C241.873 41.6523 239.263 41.0343 236.414 41.0343V48.6905C237.993 48.6905 239.263 48.9995 240.328 49.5832C244.997 52.2612 247.023 62.458 245.443 75.5731C245.066 78.8004 244.448 82.1994 243.692 85.667C236.963 84.019 229.616 82.7487 221.891 81.9247C217.256 75.5731 212.45 69.8052 207.609 64.7583C218.801 54.3555 229.307 48.6562 236.448 48.6562V41C227.007 41 214.647 47.7292 202.15 59.4024C189.653 47.7979 177.293 41.1373 167.851 41.1373V48.7935C174.958 48.7935 185.498 54.4585 196.691 64.7926C191.884 69.8396 187.078 75.5731 182.511 81.9247C174.752 82.7487 167.405 84.019 160.676 85.7013C159.886 82.268 159.302 78.9377 158.89 75.7448C157.277 62.6297 159.268 52.4328 163.903 49.7205C164.933 49.1025 166.272 48.8279 167.851 48.8279V41.1717C164.967 41.1717 162.358 41.7897 160.092 43.0943C150.444 48.6562 148.282 65.9943 153.26 87.7613C131.905 94.3532 118 104.893 118 116.017C118 127.175 131.973 137.75 153.397 144.307C148.453 166.143 150.65 183.515 160.332 189.077C162.564 190.382 165.173 191 168.057 191C177.499 191 189.859 184.271 202.356 172.598C214.853 184.202 227.213 190.863 236.654 190.863C239.538 190.863 242.147 190.245 244.413 188.94C254.061 183.378 256.224 166.04 251.246 144.273C272.532 137.715 286.437 127.141 286.437 116.017V116.017ZM241.735 93.1172C240.465 97.5461 238.886 102.112 237.1 106.679C235.693 103.932 234.217 101.185 232.603 98.4388C231.024 95.6921 229.341 93.0142 227.659 90.4049C232.534 91.1259 237.238 92.0185 241.735 93.1172ZM226.011 129.682C223.333 134.317 220.586 138.711 217.737 142.797C212.621 143.243 207.437 143.483 202.218 143.483C197.034 143.483 191.85 143.243 186.769 142.831C183.919 138.745 181.138 134.385 178.46 129.785C175.851 125.287 173.482 120.721 171.319 116.12C173.447 111.52 175.851 106.919 178.426 102.421C181.104 97.7864 183.85 93.3918 186.7 89.3062C191.816 88.8599 197 88.6196 202.218 88.6196C207.403 88.6196 212.587 88.8599 217.668 89.2719C220.518 93.3575 223.299 97.7178 225.977 102.318C228.586 106.816 230.955 111.382 233.118 115.983C230.955 120.583 228.586 125.184 226.011 129.682ZM237.1 125.218C238.954 129.819 240.534 134.42 241.838 138.883C237.341 139.981 232.603 140.908 227.693 141.629C229.376 138.986 231.058 136.274 232.637 133.493C234.217 130.746 235.693 127.965 237.1 125.218ZM202.287 161.851C199.094 158.555 195.901 154.882 192.743 150.865C195.832 151.002 198.991 151.105 202.184 151.105C205.411 151.105 208.604 151.037 211.729 150.865C208.639 154.882 205.446 158.555 202.287 161.851ZM176.743 141.629C171.868 140.908 167.165 140.016 162.667 138.917C163.937 134.488 165.517 129.922 167.302 125.356C168.71 128.102 170.186 130.849 171.799 133.596C173.413 136.342 175.061 139.02 176.743 141.629ZM202.115 70.1829C205.308 73.4788 208.501 77.1524 211.66 81.1694C208.57 81.032 205.411 80.929 202.218 80.929C198.991 80.929 195.798 80.9977 192.674 81.1694C195.764 77.1524 198.957 73.4788 202.115 70.1829ZM176.709 90.4049C175.027 93.0485 173.344 95.7608 171.765 98.5418C170.186 101.288 168.71 104.035 167.302 106.782C165.448 102.181 163.869 97.5805 162.564 93.1172C167.062 92.0529 171.8 91.1259 176.709 90.4049V90.4049ZM145.638 133.39C133.484 128.205 125.622 121.407 125.622 116.017C125.622 110.627 133.484 103.795 145.638 98.6448C148.591 97.3745 151.818 96.2415 155.148 95.1772C157.105 101.906 159.68 108.91 162.873 116.086C159.714 123.227 157.174 130.197 155.251 136.891C151.852 135.827 148.625 134.66 145.638 133.39ZM164.109 182.451C159.44 179.773 157.414 169.576 158.993 156.461C159.371 153.234 159.989 149.835 160.744 146.367C167.474 148.015 174.821 149.286 182.546 150.11C187.181 156.461 191.987 162.229 196.828 167.276C185.636 177.679 175.13 183.378 167.989 183.378C166.444 183.344 165.139 183.035 164.109 182.451V182.451ZM245.546 156.29C247.16 169.405 245.169 179.602 240.534 182.314C239.504 182.932 238.165 183.206 236.585 183.206C229.479 183.206 218.938 177.542 207.746 167.207C212.553 162.16 217.359 156.427 221.925 150.075C229.685 149.251 237.032 147.981 243.761 146.299C244.551 149.766 245.169 153.097 245.546 156.29V156.29ZM258.764 133.39C255.812 134.66 252.585 135.793 249.254 136.857C247.297 130.128 244.722 123.124 241.529 115.948C244.688 108.807 247.229 101.838 249.151 95.1428C252.55 96.2071 255.778 97.3745 258.799 98.6448C270.953 103.829 278.815 110.627 278.815 116.017C278.78 121.407 270.918 128.24 258.764 133.39V133.39Z" fill="white"/>
<path d="M201.92 131.428C210.558 131.428 217.561 124.426 217.561 115.788C217.561 107.149 210.558 100.147 201.92 100.147C193.282 100.147 186.279 107.149 186.279 115.788C186.279 124.426 193.282 131.428 201.92 131.428Z" fill="white"/>
</svg>
